<svg width="38" height="36" viewBox="0 0 38 36" fill="none" xmlns="http://www.w3.org/2000/svg">
<path d="M27.4429 6.44286L24 8L27.4429 9.55714L29 13L30.5714 9.55714L34 8L30.5714 6.44286L29 3M18.2857 4.42857C10.4286 4.42857 4 10.8571 4 18.7143C4 26.5714 10.4286 33 18.2857 33C26.1429 33 32.5714 26.5714 32.5714 18.7143C32.5714 16.6143 32.1 14.6143 31.2857 12.8143L29.5143 16.7C29.6286 17.3571 29.7143 18 29.7143 18.7143C29.7143 25.0429 24.6143 30.1429 18.2857 30.1429C11.9571 30.1429 6.85714 25.0429 6.85714 18.7143C6.85714 18.6571 6.85714 18.5857 6.85714 18.5286C8.69658 17.8395 10.3742 16.7785 11.785 15.4119C13.1959 14.0452 14.3098 12.4023 15.0571 10.5857C16.397 12.233 18.0873 13.5609 20.0049 14.4728C21.9226 15.3847 24.0194 15.8576 26.1429 15.8571C26.7783 15.8566 27.4131 15.8136 28.0429 15.7286L25.9286 11.0714L19.1429 8L24.1857 5.71429C22.3857 4.9 20.3857 4.42857 18.2857 4.42857ZM14 18.3571C13.5264 18.3571 13.0722 18.5453 12.7373 18.8802C12.4024 19.2151 12.2143 19.6693 12.2143 20.1429C12.2143 20.6165 12.4024 21.0707 12.7373 21.4055C13.0722 21.7404 13.5264 21.9286 14 21.9286C14.2345 21.9286 14.4667 21.8824 14.6834 21.7926C14.9 21.7029 15.0969 21.5714 15.2627 21.4055C15.4285 21.2397 15.56 21.0429 15.6498 20.8262C15.7395 20.6096 15.7857 20.3774 15.7857 20.1429C15.7857 19.9084 15.7395 19.6761 15.6498 19.4595C15.56 19.2428 15.4285 19.046 15.2627 18.8802C15.0969 18.7143 14.9 18.5828 14.6834 18.4931C14.4667 18.4033 14.2345 18.3571 14 18.3571ZM22.5714 18.3571C22.0978 18.3571 21.6436 18.5453 21.3087 18.8802C20.9739 19.2151 20.7857 19.6693 20.7857 20.1429C20.7857 20.6165 20.9739 21.0707 21.3087 21.4055C21.6436 21.7404 22.0978 21.9286 22.5714 21.9286C23.045 21.9286 23.4992 21.7404 23.8341 21.4055C24.169 21.0707 24.3571 20.6165 24.3571 20.1429C24.3571 19.6693 24.169 19.2151 23.8341 18.8802C23.4992 18.5453 23.045 18.3571 22.5714 18.3571Z" fill="black"/>
</svg>
