<svg width="40" height="40" viewBox="0 0 40 40" fill="none" xmlns="http://www.w3.org/2000/svg">
<path d="M20 8.33333C18.15 8.33333 16.6666 9.81667 16.6666 11.6667C16.6666 13.5167 18.15 15 20 15C21.85 15 23.3333 13.5167 23.3333 11.6667C23.3333 9.81667 21.85 8.33333 20 8.33333ZM36.6666 1.66667V10H33.3333V6.66667H6.66665V10H3.33331V1.66667H6.66665V5H33.3333V1.66667H36.6666ZM25 18.7667V38.3333H21.6666V30H18.3333V38.3333H15V18.7667C11.55 16.95 9.16665 13.3333 9.16665 9.16667V8.33333H12.5V9.16667C12.5 13.3333 15.8333 16.6667 20 16.6667C24.1666 16.6667 27.5 13.3333 27.5 9.16667V8.33333H30.8333V9.16667C30.8333 13.3333 28.45 16.95 25 18.7667Z" fill="black"/>
</svg>
