<svg width="84" height="59" viewBox="0 0 84 59" fill="none" xmlns="http://www.w3.org/2000/svg">
<path d="M40.0835 45.7083L41.7918 55.875C40.7085 56.4583 38.9585 57 36.6251 57.5C34.2501 58.0417 31.4585 58.3333 28.2501 58.3333C19.0418 58.1667 12.1251 55.4167 7.50012 50.1667C2.83346 44.875 0.500122 38.1667 0.500122 30.0417C0.708455 20.4167 3.50012 13.0417 8.83346 7.875C14.3335 2.66667 21.1668 0 29.4168 0C32.5418 0 35.2501 0.291667 37.5001 0.791667C39.7501 1.29167 41.4168 1.83333 42.5001 2.45833L40.0835 12.8333L35.6668 11.4167C34.0001 11 32.0835 10.7917 29.8751 10.7917C25.0418 10.75 21.0418 12.2917 17.9168 15.375C14.7501 18.4167 13.1251 23.0833 13.0001 29.2917C13.0001 34.9583 14.5418 39.375 17.5001 42.625C20.4585 45.8333 24.6251 47.5 29.9585 47.5417L35.5001 47.0417C37.2918 46.7083 38.7918 46.25 40.0835 45.7083ZM50.0418 58.3333L52.5835 41.6667H46.3335L47.7501 33.3333H54.0001L55.3335 25H49.0835L50.5001 16.6667H56.7501L59.2918 0H67.6251L65.0835 16.6667H69.2501L71.7918 0H80.1251L77.5835 16.6667H83.8335L82.4168 25H76.1668L74.8335 33.3333H81.0835L79.6668 41.6667H73.4168L70.8751 58.3333H62.5418L65.0835 41.6667H60.9168L58.3751 58.3333H50.0418ZM62.3335 33.3333H66.5001L67.8335 25H63.6668L62.3335 33.3333Z" fill="#042222"/>
</svg>
