<svg width="84" height="84" viewBox="0 0 84 84" fill="none" xmlns="http://www.w3.org/2000/svg">
<path d="M2.66675 36.2917L26.7501 12.1667L33.7917 19.25C32.7917 22.7917 34.4167 26.6667 37.6667 28.5417V51.625C35.1667 53.0417 33.5001 55.75 33.5001 58.8333C33.5001 61.0435 34.3781 63.1631 35.9409 64.7259C37.5037 66.2887 39.6233 67.1667 41.8334 67.1667C44.0436 67.1667 46.1632 66.2887 47.726 64.7259C49.2888 63.1631 50.1667 61.0435 50.1667 58.8333C50.1667 55.75 48.5001 53.0417 46.0001 51.625V31.375L54.6251 40.0833C54.3334 40.7083 54.3334 41.4167 54.3334 42.1667C54.3334 44.3768 55.2114 46.4964 56.7742 48.0592C58.337 49.622 60.4566 50.5 62.6667 50.5C64.8769 50.5 66.9965 49.622 68.5593 48.0592C70.1221 46.4964 71.0001 44.3768 71.0001 42.1667C71.0001 39.9565 70.1221 37.8369 68.5593 36.2741C66.9965 34.7113 64.8769 33.8333 62.6667 33.8333C61.9167 33.8333 61.2084 33.8333 60.5834 34.125L49.8751 23.4167C50.9584 19.5417 48.9584 15.2917 45.0834 13.6667C43.2917 13 41.4167 12.8333 39.7501 13.2917L32.6667 6.25L35.9584 3C39.2084 -0.291667 44.4584 -0.291667 47.7084 3L81.0001 36.2917C84.2917 39.5417 84.2917 44.7917 81.0001 48.0417L47.7084 81.3333C44.4584 84.625 39.2084 84.625 35.9584 81.3333L2.66675 48.0417C-0.624919 44.7917 -0.624919 39.5417 2.66675 36.2917Z" fill="#042222"/>
</svg>
