<svg width="76" height="76" viewBox="0 0 76 76" fill="none" xmlns="http://www.w3.org/2000/svg">
<path d="M67.0002 33.9998V25.6665H33.6668V8.99984H25.3335V25.6665H8.66683V33.9998H25.3335V67.3332H33.6668V33.9998H67.0002ZM67.0002 0.666504C69.0835 0.666504 71.1668 1.49984 72.7918 3.20817C74.5002 4.83317 75.3335 6.9165 75.3335 8.99984V67.3332C75.3335 69.4165 74.5002 71.4998 72.7918 73.1248C71.1668 74.8332 69.0835 75.6665 67.0002 75.6665H8.66683C6.5835 75.6665 4.50016 74.8332 2.87516 73.1248C1.16683 71.4998 0.333496 69.4165 0.333496 67.3332V8.99984C0.333496 6.9165 1.16683 4.83317 2.87516 3.20817C4.50016 1.49984 6.5835 0.666504 8.66683 0.666504H67.0002Z" fill="#042222"/>
</svg>
