<svg width="76" height="76" viewBox="0 0 76 76" fill="none" xmlns="http://www.w3.org/2000/svg">
<path d="M0.666748 0.666504H75.6667V75.6665H0.666748V0.666504ZM20.3751 63.3332C22.0417 66.8748 25.3334 69.7915 30.9584 69.7915C37.2084 69.7915 41.5001 66.4582 41.5001 59.1665V35.0832H34.4167V58.9998C34.4167 62.5832 32.9584 63.4998 30.6667 63.4998C28.2501 63.4998 27.2501 61.8332 26.1251 59.8748L20.3751 63.3332ZM45.2917 62.5832C47.3751 66.6665 51.5834 69.7915 58.1667 69.7915C64.8334 69.7915 69.8334 66.3332 69.8334 59.9582C69.8334 54.0832 66.4584 51.4582 60.4584 48.8748L58.7084 48.1248C55.6667 46.8332 54.3751 45.9582 54.3751 43.8748C54.3751 42.1665 55.6667 40.8332 57.7501 40.8332C59.7501 40.8332 61.0834 41.7082 62.2917 43.8748L67.7501 40.2498C65.4584 36.2498 62.2084 34.7082 57.7501 34.7082C51.4584 34.7082 47.4167 38.7082 47.4167 43.9998C47.4167 49.7498 50.7917 52.4582 55.8751 54.6248L57.6251 55.3748C60.8751 56.7915 62.7917 57.6665 62.7917 60.0832C62.7917 62.0832 60.9167 63.5415 58.0001 63.5415C54.5417 63.5415 52.5417 61.7498 51.0417 59.2498L45.2917 62.5832Z" fill="#042222"/>
</svg>
