<svg width="68" height="76" viewBox="0 0 68 76" fill="none" xmlns="http://www.w3.org/2000/svg">
<path d="M34.1668 0.666504C15.7501 0.666504 0.833435 8.12484 0.833435 17.3332C0.833435 26.5415 15.7501 33.9998 34.1668 33.9998C52.5834 33.9998 67.5001 26.5415 67.5001 17.3332C67.5001 8.12484 52.5834 0.666504 34.1668 0.666504ZM0.833435 25.6665V38.1665C0.833435 47.3748 15.7501 54.8332 34.1668 54.8332C52.5834 54.8332 67.5001 47.3748 67.5001 38.1665V25.6665C67.5001 34.8748 52.5834 42.3332 34.1668 42.3332C15.7501 42.3332 0.833435 34.8748 0.833435 25.6665ZM0.833435 46.4998V58.9998C0.833435 68.2082 15.7501 75.6665 34.1668 75.6665C52.5834 75.6665 67.5001 68.2082 67.5001 58.9998V46.4998C67.5001 55.7082 52.5834 63.1665 34.1668 63.1665C15.7501 63.1665 0.833435 55.7082 0.833435 46.4998Z" fill="#042222"/>
</svg>
