<svg width="85" height="84" viewBox="0 0 85 84" fill="none" xmlns="http://www.w3.org/2000/svg">
<path d="M72.25 21.3333C75.4105 21.3333 78.4416 22.5888 80.6764 24.8236C82.9112 27.0585 84.1667 30.0895 84.1667 33.25V49C84.1667 52.1605 82.9112 55.1916 80.6764 57.4264C78.4416 59.6612 75.4105 60.9167 72.25 60.9167H42.5C42.5 62.5417 43.8334 64.9167 45.4584 64.9167H63.3334V71.9167C63.3334 75.0772 62.0779 78.1082 59.8431 80.343C57.6083 82.5778 54.5772 83.8333 51.4167 83.8333H33.5834C30.4229 83.8333 27.3918 82.5778 25.157 80.343C22.9222 78.1082 21.6667 75.0772 21.6667 71.9167V56.2917C21.6667 49.7083 27 44.4167 33.5834 44.4167H55.4584C62.0417 44.4167 67.3334 39.0833 67.3334 32.5V21.3333H72.25ZM54.4167 70.4583C52.75 70.4583 51.4167 71.7083 51.4167 74.1667C51.4167 76.625 52.75 77.125 54.4167 77.125C54.8052 77.125 55.1899 77.0485 55.5488 76.8998C55.9077 76.7511 56.2339 76.5332 56.5086 76.2585C56.7833 75.9838 57.0012 75.6577 57.1499 75.2988C57.2985 74.9399 57.375 74.5552 57.375 74.1667C57.375 71.7083 56.0417 70.4583 54.4167 70.4583ZM12.75 63C6.16671 63 0.833374 57.6667 0.833374 51.0833V35.3333C0.833374 28.75 6.16671 23.4167 12.75 23.4167H42.5C42.5 21.7917 41.1667 19.4167 39.5417 19.4167H21.6667V12.4167C21.6667 5.83333 27 0.5 33.5834 0.5H51.4167C58 0.5 63.3334 5.83333 63.3334 12.4167V28.0417C63.3334 34.625 58 39.9167 51.4167 39.9167H29.5417C22.9584 39.9167 17.6667 45.25 17.6667 51.8333V63H12.75ZM30.5834 13.875C32.25 13.875 33.5834 12.625 33.5834 10.1667C33.5834 7.70833 32.25 7.20833 30.5834 7.20833C28.9584 7.20833 27.625 7.70833 27.625 10.1667C27.625 12.625 28.9584 13.875 30.5834 13.875Z" fill="#042222"/>
</svg>
