<svg width="84" height="84" viewBox="0 0 84 84" fill="none" xmlns="http://www.w3.org/2000/svg">
<path d="M25.875 41.6667L20.3333 45.375V37.9583L25.875 41.6667ZM39.4583 32.5833V22.25L22.125 33.8333L29.8333 39L39.4583 32.5833ZM61.25 33.8333L43.875 22.25V32.5833L53.5 39L61.25 33.8333ZM22.125 49.5L39.4583 61.0833V50.75L29.8333 44.3333L22.125 49.5ZM43.875 50.75V61.0833L61.25 49.5L53.5 44.3333L43.875 50.75ZM41.6667 36.4167L33.8333 41.6667L41.6667 46.9167L49.5 41.6667L41.6667 36.4167ZM83.3333 41.6667C83.3333 64.5833 64.5833 83.3333 41.6667 83.3333C18.75 83.3333 0 64.5833 0 41.6667C0 18.75 18.75 0 41.6667 0C64.5833 0 83.3333 18.75 83.3333 41.6667ZM67.4167 33.8333C67.4167 33.7083 67.4167 33.625 67.4167 33.5417L67.375 33.3333L67.3333 33.125C67.2917 33.0833 67.2917 33.0417 67.25 32.9583L67.2083 32.875L67.125 32.7083L67.0833 32.625L67 32.5L66.9167 32.375L66.7917 32.25L66.6667 32.1667V32.0833L66.5 32L66.4583 31.9583L42.9167 16.2917C42.1667 15.7917 41.2083 15.7917 40.4583 16.2917L16.875 31.9583V32L16.6667 32.0833C16.6667 32.125 16.6667 32.1667 16.6667 32.1667L16.5417 32.25L16.4167 32.375L16.375 32.5L16.25 32.625L16.2083 32.7083L16.125 32.875L16.0833 32.9583L16 33.125V33.3333H15.9583L15.9167 33.5417C15.9167 33.625 15.9167 33.7083 15.9167 33.8333V49.5C15.9167 49.625 15.9167 49.7083 15.9167 49.7917L15.9583 50H16V50.2083C16.0417 50.25 16.0417 50.2917 16.0833 50.375L16.125 50.4583L16.2083 50.625L16.25 50.7083L16.3333 50.8333L16.4167 50.9583C16.4583 51 16.5 51.0417 16.5417 51.0833L16.6667 51.1667V51.25L16.8333 51.3333L16.875 51.375L40.4583 67.0833C40.7917 67.3333 41.25 67.4167 41.6667 67.4167C42.0833 67.4167 42.5417 67.2917 42.9167 67.0833L66.4583 51.375L66.5 51.3333L66.6667 51.25V51.1667L66.7917 51.0833L66.9167 50.9583L67 50.8333L67.0833 50.7083L67.125 50.625L67.2083 50.4583L67.25 50.375L67.3333 50.2083V50H67.375L67.4167 49.7917C67.4167 49.7083 67.4167 49.625 67.4167 49.5V33.8333ZM63 45.375V37.9583L57.4583 41.6667L63 45.375Z" fill="#042222"/>
</svg>
