<svg width="101" height="98" viewBox="0 0 101 98" fill="none" xmlns="http://www.w3.org/2000/svg">
<path d="M79.6667 11.5C81.8768 11.5 83.9964 12.378 85.5592 13.9408C87.122 15.5036 88 17.6232 88 19.8333V78.1667C88 80.3768 87.122 82.4964 85.5592 84.0592C83.9964 85.622 81.8768 86.5 79.6667 86.5H21.3333C19.1232 86.5 17.0036 85.622 15.4408 84.0592C13.878 82.4964 13 80.3768 13 78.1667V19.8333C13 17.6232 13.878 15.5036 15.4408 13.9408C17.0036 12.378 19.1232 11.5 21.3333 11.5H79.6667ZM77.5833 76.0833V54C77.5833 50.3975 76.1522 46.9425 73.6049 44.3951C71.0575 41.8478 67.6025 40.4167 64 40.4167C60.4583 40.4167 56.3333 42.5833 54.3333 45.8333V41.2083H42.7083V76.0833H54.3333V55.5417C54.3333 52.3333 56.9167 49.7083 60.125 49.7083C61.6721 49.7083 63.1558 50.3229 64.2498 51.4169C65.3438 52.5108 65.9583 53.9946 65.9583 55.5417V76.0833H77.5833ZM29.1667 34.6667C31.0232 34.6667 32.8037 33.9292 34.1164 32.6164C35.4292 31.3037 36.1667 29.5232 36.1667 27.6667C36.1667 23.7917 33.0417 20.625 29.1667 20.625C27.2991 20.625 25.508 21.3669 24.1875 22.6875C22.8669 24.008 22.125 25.7991 22.125 27.6667C22.125 31.5417 25.2917 34.6667 29.1667 34.6667ZM34.9583 76.0833V41.2083H23.4167V76.0833H34.9583Z" fill="#042222"/>
</svg>
