<svg width="92" height="42" viewBox="0 0 92 42" fill="none" xmlns="http://www.w3.org/2000/svg">
<path d="M4.5001 33.6663C5.60517 33.6663 6.66498 34.1053 7.44638 34.8867C8.22778 35.6681 8.66677 36.7279 8.66677 37.833C8.66677 38.9381 8.22778 39.9979 7.44638 40.7793C6.66498 41.5607 5.60517 41.9997 4.5001 41.9997C3.39503 41.9997 2.33522 41.5607 1.55382 40.7793C0.772422 39.9979 0.333435 38.9381 0.333435 37.833C0.333435 36.7279 0.772422 35.6681 1.55382 34.8867C2.33522 34.1053 3.39503 33.6663 4.5001 33.6663ZM83.6668 41.9997H75.3334V8.66634H67.0001V0.333008H92.0001V8.66634H83.6668V41.9997ZM62.8334 0.333008V8.66634H54.5001V16.9997H62.8334V25.333H54.5001V33.6663H62.8334V41.9997H46.1668V0.333008H62.8334ZM42.0001 0.333008V41.9997H33.6668L21.1668 16.9997V41.9997H12.8334V0.333008H21.1668L33.6668 25.333V0.333008H42.0001Z" fill="#042222"/>
</svg>
