<svg width="84" height="82" viewBox="0 0 84 82" fill="none" xmlns="http://www.w3.org/2000/svg">
<path d="M41.8332 0.5C36.3614 0.5 30.9433 1.57774 25.888 3.67169C20.8328 5.76563 16.2395 8.83478 12.3704 12.7039C4.55637 20.5179 0.166504 31.116 0.166504 42.1667C0.166504 60.5833 12.1248 76.2083 28.6665 81.75C30.7498 82.0833 31.4165 80.7917 31.4165 79.6667C31.4165 78.7083 31.4165 76.0833 31.4165 72.625C19.8748 75.125 17.4165 67.0417 17.4165 67.0417C15.4998 62.2083 12.7915 60.9167 12.7915 60.9167C8.99984 58.3333 13.0832 58.4167 13.0832 58.4167C17.2498 58.7083 19.4582 62.7083 19.4582 62.7083C23.0832 69.0417 29.2082 67.1667 31.5832 66.1667C31.9582 63.4583 33.0415 61.625 34.2082 60.5833C24.9582 59.5417 15.2498 55.9583 15.2498 40.0833C15.2498 35.4583 16.8332 31.75 19.5415 28.7917C19.1248 27.75 17.6665 23.4167 19.9582 17.7917C19.9582 17.7917 23.4582 16.6667 31.4165 22.0417C34.7082 21.125 38.2915 20.6667 41.8332 20.6667C45.3748 20.6667 48.9582 21.125 52.2498 22.0417C60.2082 16.6667 63.7082 17.7917 63.7082 17.7917C65.9998 23.4167 64.5415 27.75 64.1248 28.7917C66.8332 31.75 68.4165 35.4583 68.4165 40.0833C68.4165 56 58.6665 59.5 49.3748 60.5417C50.8748 61.8333 52.2498 64.375 52.2498 68.25C52.2498 73.8333 52.2498 78.3333 52.2498 79.6667C52.2498 80.7917 52.9165 82.125 55.0415 81.75C71.5832 76.1667 83.4998 60.5833 83.4998 42.1667C83.4998 36.6949 82.4221 31.2768 80.3282 26.2215C78.2342 21.1663 75.1651 16.573 71.296 12.7039C67.4268 8.83478 62.8335 5.76563 57.7783 3.67169C52.7231 1.57774 47.3049 0.5 41.8332 0.5Z" fill="#042222"/>
</svg>
