<svg width="90" height="81" viewBox="0 0 90 81" fill="none" xmlns="http://www.w3.org/2000/svg">
<path d="M44.8334 32.2917C49.1251 32.2917 52.6251 35.7917 52.6251 40.1667C52.6251 44.3333 49.1251 47.875 44.8334 47.875C40.5418 47.875 37.0418 44.3333 37.0418 40.1667C37.0418 35.7917 40.5418 32.2917 44.8334 32.2917ZM25.5417 73.5C28.1667 75.0833 33.9168 72.6667 40.5418 66.4167C38.3751 63.9583 36.2501 61.2917 34.2501 58.5C30.8334 58.1667 27.4584 57.6667 24.2501 57C22.1251 65.9167 22.9167 72.0417 25.5417 73.5ZM28.5001 49.5833L27.2917 47.4583C26.8334 48.6667 26.3751 49.875 26.0834 51.0417C27.2084 51.2917 28.4584 51.5 29.7501 51.7083C29.3334 51 28.9167 50.2917 28.5001 49.5833ZM55.7501 46.4167L59.1251 40.1667L55.7501 33.9167C54.5001 31.7083 53.1668 29.75 51.9584 27.7917C49.7084 27.6667 47.3334 27.6667 44.8334 27.6667C42.3334 27.6667 39.9584 27.6667 37.7084 27.7917C36.5001 29.75 35.1668 31.7083 33.9168 33.9167L30.5417 40.1667L33.9168 46.4167C35.1668 48.625 36.5001 50.5833 37.7084 52.5417C39.9584 52.6667 42.3334 52.6667 44.8334 52.6667C47.3334 52.6667 49.7084 52.6667 51.9584 52.5417C53.1668 50.5833 54.5001 48.625 55.7501 46.4167ZM44.8334 18.4167C44.0418 19.3333 43.2084 20.2917 42.3751 21.4167C43.2084 21.4167 44.0001 21.4167 44.8334 21.4167C45.6668 21.4167 46.4584 21.4167 47.2918 21.4167C46.4584 20.2917 45.6251 19.3333 44.8334 18.4167ZM44.8334 61.9167C45.6251 61 46.4584 60.0417 47.2918 58.9167C46.4584 58.9167 45.6668 58.9167 44.8334 58.9167C44.0001 58.9167 43.2084 58.9167 42.3751 58.9167C43.2084 60.0417 44.0418 61 44.8334 61.9167ZM64.0834 6.83334C61.5001 5.25001 55.7501 7.66667 49.1251 13.9167C51.2918 16.375 53.4168 19.0417 55.4168 21.8333C58.8334 22.1667 62.2084 22.6667 65.4168 23.3333C67.5418 14.4167 66.7501 8.29167 64.0834 6.83334ZM61.1668 30.75L62.3751 32.875C62.8334 31.6667 63.2918 30.4583 63.5834 29.2917C62.4584 29.0417 61.2084 28.8333 59.9168 28.625C60.3334 29.3333 60.7501 30.0417 61.1668 30.75ZM67.2084 1.37501C73.3334 4.87501 74.0001 14.0833 71.4167 24.8333C82.0001 27.9583 89.6251 33.125 89.6251 40.1667C89.6251 47.2083 82.0001 52.375 71.4167 55.5C74.0001 66.25 73.3334 75.4583 67.2084 78.9583C61.1251 82.4583 52.8334 78.4584 44.8334 70.8334C36.8334 78.4584 28.5417 82.4583 22.4167 78.9583C16.3334 75.4583 15.6667 66.25 18.2501 55.5C7.66675 52.375 0.041748 47.2083 0.041748 40.1667C0.041748 33.125 7.66675 27.9583 18.2501 24.8333C15.6667 14.0833 16.3334 4.87501 22.4167 1.37501C28.5417 -2.12499 36.8334 1.87501 44.8334 9.50001C52.8334 1.87501 61.1251 -2.12499 67.2084 1.37501ZM66.0001 40.1667C67.4168 43.2917 68.6667 46.4167 69.7084 49.5833C78.4584 46.9583 83.3751 43.2083 83.3751 40.1667C83.3751 37.125 78.4584 33.375 69.7084 30.75C68.6667 33.9167 67.4168 37.0417 66.0001 40.1667ZM23.6667 40.1667C22.2501 37.0417 21.0001 33.9167 19.9584 30.75C11.2084 33.375 6.29175 37.125 6.29175 40.1667C6.29175 43.2083 11.2084 46.9583 19.9584 49.5833C21.0001 46.4167 22.2501 43.2917 23.6667 40.1667ZM61.1668 49.5833C60.7501 50.2917 60.3334 51 59.9168 51.7083C61.2084 51.5 62.4584 51.2917 63.5834 51.0417C63.2918 49.875 62.8334 48.6667 62.3751 47.4583L61.1668 49.5833ZM49.1251 66.4167C55.7501 72.6667 61.5001 75.0833 64.0834 73.5C66.7501 72.0417 67.5418 65.9167 65.4168 57C62.2084 57.6667 58.8334 58.1667 55.4168 58.5C53.4168 61.2917 51.2918 63.9583 49.1251 66.4167ZM28.5001 30.75C28.9167 30.0417 29.3334 29.3333 29.7501 28.625C28.4584 28.8333 27.2084 29.0417 26.0834 29.2917C26.3751 30.4583 26.8334 31.6667 27.2917 32.875L28.5001 30.75ZM40.5418 13.9167C33.9168 7.66667 28.1667 5.25001 25.5417 6.83334C22.9167 8.29167 22.1251 14.4167 24.2501 23.3333C27.4584 22.6667 30.8334 22.1667 34.2501 21.8333C36.2501 19.0417 38.3751 16.375 40.5418 13.9167Z" fill="#042222"/>
</svg>
