<svg width="76" height="76" viewBox="0 0 76 76" fill="none" xmlns="http://www.w3.org/2000/svg">
<path d="M56.4354 55.2689V21.0589L33.9578 38.1639M1.06554 27.8406C-0.0583452 26.635 -0.0958077 24.7511 0.99061 23.5078L5.48613 19.3258C6.23539 18.6476 8.07106 18.3462 9.41972 19.3258L22.232 29.1593L51.9399 1.84403C53.1387 0.638389 55.1991 0.148599 57.5593 1.39191L72.5444 8.58806C73.893 9.37926 75.1667 10.6226 75.1667 12.9208V63.7837C75.1667 65.2907 74.0803 66.9108 72.919 67.5513L56.4354 75.4633C55.2366 75.9531 52.9888 75.501 52.2021 74.7098L22.157 47.2062L9.41972 57.002C7.99613 57.9815 6.23539 57.7178 5.48613 57.002L0.99061 52.8576C-0.208196 51.6143 -0.0583452 49.5798 1.17792 48.3364L12.4167 38.1639" fill="#042222"/>
</svg>
