<svg width="158" height="141" viewBox="0 0 158 141" fill="none" xmlns="http://www.w3.org/2000/svg">
<path d="M36.429 0.732066C35.9769 1.77295 36.569 2.33053 37.8722 2.1095C40.3671 1.66683 40.4785 1.70005 40.8072 2.81047C40.9899 3.39838 41.0425 7.34399 40.9817 11.615L40.8271 19.3744L39.6342 19.8242C38.9632 20.0814 38.4034 20.4043 38.4025 20.5674C38.4018 20.6978 39.9262 20.8366 41.749 20.8467C45.0969 20.8653 46.2898 20.4154 43.9858 19.9788C43.2424 19.8768 42.7978 19.5483 42.6887 19.0912C42.5791 18.7319 42.5603 15.406 42.6179 11.7219L42.7665 5.03851L49.5292 13.1622C53.2618 17.6173 56.5525 21.2547 56.8501 21.2564C57.2965 21.2588 57.3796 19.6942 57.4251 11.4778L57.4794 1.66372L58.5965 1.47426C60.7932 1.12776 59.5315 0.566474 56.2585 0.450542C53.5433 0.370303 53.0221 0.43263 53.0198 0.856494C53.0183 1.11733 53.3147 1.34721 53.6867 1.34927C54.0587 1.35133 54.6528 1.55026 54.9863 1.78034C55.5795 2.14229 55.6126 2.89241 55.5019 9.44558L55.3501 16.7158L49.1422 9.14953C45.7056 4.98957 42.4893 1.35251 41.9701 1.05619C41.4509 0.75986 40.0392 0.425986 38.8492 0.354188C37.1015 0.214093 36.6174 0.309232 36.429 0.732066Z" fill="#042222"/>
<path d="M69.8721 0.786738C68.4184 1.30039 69.0038 3.06434 70.6406 3.0734C71.0126 3.07546 72.0934 2.72278 72.9887 2.27125C74.8913 1.30361 75.7828 1.53678 76.4063 3.13792C76.9201 4.41239 76.8819 18.0414 76.392 19.1799C76.2034 19.6354 75.6059 20.0559 75.0844 20.1835C72.9615 20.6282 74.2241 21.0265 77.8324 21.0464C81.5896 21.0672 82.484 20.7787 80.4416 20.1153L79.3275 19.7831L79.3771 10.8167L79.4269 1.8178L81.8449 1.83118C85.8252 1.85321 87.6036 3.16728 87.5873 6.10172C87.5723 8.80793 85.7411 10.3303 82.5791 10.3128C81.5747 10.3072 80.6809 10.4979 80.3443 10.8221C79.6342 11.4051 79.6339 11.4703 80.113 12.2881C80.7031 13.2043 82.1174 13.0817 82.681 12.074C83.0569 11.3588 83.2061 11.2944 83.6877 11.6557C84.0212 11.8858 84.87 13.1296 85.5699 14.3725C87.4857 17.7415 89.3325 20.1319 90.6307 20.8238C91.8547 21.4827 94.9411 21.6954 94.9442 21.1411C94.9453 20.9455 94.3535 20.3227 93.6498 19.7645C92.9089 19.2061 91.4308 17.4046 90.2868 15.7354C89.1799 14.099 87.7762 12.2979 87.1837 11.8055L86.073 10.8538L87.453 10.2093C91.6681 8.14587 91.6202 3.35254 87.4273 1.40559C86.0915 0.778688 85.2363 0.708744 78.3176 0.60524C74.1144 0.516764 70.3193 0.626184 69.8721 0.786738Z" fill="#042222"/>
<path d="M104.728 1.04482C104.726 1.27306 105.282 1.6348 105.951 1.80153L107.14 2.13417L107.091 10.9375L107.042 19.7408L105.849 20.1907C103.575 21.0585 104.504 21.2592 110.122 21.1599C115.889 21.0614 117.043 20.8069 119.061 19.1878C122.461 16.5329 121.151 11.3088 116.804 10.3065L115.8 10.1053L117.069 9.32981C119.309 8.03797 120.07 4.84681 118.592 3.07791C117.077 1.2436 115.851 0.910753 110.049 0.748217C105.623 0.593296 104.73 0.653566 104.728 1.04482ZM114.764 2.50242C116.248 3.19536 116.907 5.09015 116.264 6.91252C115.66 8.60468 114.092 9.50897 111.674 9.49559L109.889 9.48571L109.91 5.73615L109.93 1.98658L111.79 1.99688C112.832 2.00264 114.17 2.23829 114.764 2.50242ZM115.905 11.3449C117.278 11.972 118.051 13.411 118.041 15.3021C118.024 18.3017 116.194 19.7262 111.913 20.1264L109.829 20.3431L109.855 15.6154C109.869 13.007 109.993 10.7905 110.18 10.6611C110.554 10.3045 114.681 10.7839 115.905 11.3449Z" fill="#042222"/>
<path d="M2.00393 23.5287C11.1868 37.9913 78.1771 140.255 78.3638 140.126C78.4761 139.996 95.9186 113.943 117.112 82.2368C138.306 50.5308 155.974 24.0874 156.386 23.5027L157.136 22.4635L78.943 22.0307L0.749797 21.598L2.00393 23.5287ZM149.527 26.1711C149.336 26.9852 78.5528 132.856 78.2556 132.789C77.9956 132.722 8.46129 26.3359 7.98348 25.2899C7.8363 24.9956 22.1214 24.9768 78.739 25.2902C141.569 25.6379 149.641 25.7478 149.527 26.1711Z" fill="#042222"/>
<path d="M30.2535 27.6629C27.6105 27.9744 19.0823 29.6553 18.7457 29.9795C18.4466 30.2387 20.4226 36.1839 21.8925 39.4526C25.0906 46.3827 28.9315 51.4253 35.4097 57.1998C38.8524 60.2512 41.3715 62.1563 44.2639 63.8352C48.1572 66.1391 54.2796 68.9771 57.2508 69.8413C58.6251 70.2402 58.6619 70.3056 58.4324 71.4456C57.6279 75.6473 57.3491 78.9715 57.5117 83.2112C58.0695 96.6805 63.8436 108.679 74.3552 118.323L78.3527 121.964L80.8196 119.859C93.9011 108.78 100.984 92.7445 99.4684 77.4765C99.2573 75.2908 99.0107 72.8113 98.9036 71.9956L98.6885 70.5272L100.477 69.9175C103.31 69.0203 109.873 66.0894 112.747 64.4098C121.405 59.4039 128.624 52.3357 133.468 44.1459C135.609 40.5058 138.134 34.5203 138.633 31.882L138.863 30.5791L136.709 30.0128C125.119 26.9816 110.945 27.0988 100.065 30.2665C93.1341 32.2823 87.6519 34.7626 82.0889 38.3837L78.6915 40.5821L76.4682 39.0047C69.2793 33.9436 60.2602 30.2092 50.8213 28.3963C46.5107 27.5573 34.8319 27.1666 30.2535 27.6629ZM49.6765 33.6069C51.7203 34.0095 54.6554 34.6778 56.1781 35.1427C60.3377 36.3722 67.4622 39.6396 71.1315 42.0727L74.3935 44.1776L72.1114 46.5126C67.5843 51.1828 63.7583 56.8676 61.3839 62.4301C60.6304 64.154 60.1051 64.9662 59.6959 64.964C58.4683 64.9572 48.6733 60.2729 45.6341 58.2346C41.4829 55.4727 35.5612 49.9947 32.9763 46.5242C29.542 41.9404 25.6034 34.3866 26.3136 33.771C26.5003 33.6416 28.2135 33.2925 30.1493 33.0423C35.138 32.3526 44.6598 32.6336 49.6765 33.6069ZM128.727 33.7183C130.065 33.954 131.254 34.2214 131.402 34.3527C131.809 34.681 128.987 40.5344 126.999 43.5231C121.072 52.457 112.701 59.2253 102.411 63.4071C97.079 65.5948 97.1906 65.5954 96.1997 63.1445C93.8872 57.5234 89.8295 51.3059 85.4653 46.7169C82.8763 43.9963 82.7634 44.2239 87.9135 41.2527C95.6015 36.7956 103.912 34.1679 113.106 33.1754C115.414 32.9273 126.237 33.3133 128.727 33.7183ZM80.8338 50.0823C83.164 52.508 86.1548 56.5677 87.8493 59.5768C89.6176 62.7168 91.0496 66.1157 90.8237 66.6035C90.3336 67.7746 75.2274 68.2779 69.3921 67.3327C67.8682 67.096 66.4933 66.8275 66.345 66.7289C65.9739 66.5638 67.7078 62.4651 69.3231 59.6373C71.7645 55.412 77.9813 47.9145 78.7983 48.1799C78.9467 48.2459 79.872 49.0988 80.8338 50.0823ZM69.8087 72.7149C74.827 73.3948 85.3556 73.2575 89.7866 72.4995C91.3134 72.2144 92.6165 72.026 92.6533 72.0914C92.7276 72.1245 92.9432 73.4951 93.1947 75.0942C93.7323 78.7816 93.347 87.9091 92.5111 91.0673C90.9907 96.9279 87.7923 103.497 84.345 107.977C82.3967 110.477 78.8043 114.305 78.4323 114.303C77.9115 114.3 74.805 110.989 72.737 108.239C65.6096 98.7764 62.2894 87.0199 63.7247 76.3983C64.3057 72.228 64.4572 71.7398 65.1256 71.9717C65.3854 72.0709 67.504 72.4087 69.8087 72.7149Z" fill="#042222"/>
</svg>
